<svg width="1866" height="626" viewBox="0 0 1866 626" fill="none" xmlns="http://www.w3.org/2000/svg">
<path d="M50.2385 463.368V288.251H2.87077V230.836H50.2385V189.688C50.2385 138.971 63.1569 95.9094 141.146 95.9094C155.5 95.9094 169.854 96.8664 183.251 100.216L179.902 160.98C171.768 158.109 165.069 156.196 156.457 156.196C133.491 156.196 122.008 163.373 122.008 193.994V230.836H175.117V288.251H122.008V463.368H50.2385ZM921.964 260.837L885.944 271.032C883.679 265.028 880.337 259.195 875.919 253.531C871.615 247.754 865.725 242.997 858.249 239.259C850.773 235.521 841.201 233.652 829.534 233.652C813.563 233.652 800.254 237.333 789.606 244.696C779.072 251.945 773.805 261.177 773.805 272.391C773.805 282.359 777.429 290.231 784.679 296.008C791.928 301.785 803.255 306.599 818.66 310.451L857.399 319.965C880.733 325.629 898.121 334.294 909.561 345.961C921.002 357.515 926.722 372.41 926.722 390.647C926.722 405.599 922.418 418.965 913.809 430.746C905.313 442.526 893.42 451.814 878.128 458.61C862.836 465.407 845.053 468.805 824.777 468.805C798.158 468.805 776.127 463.028 758.683 451.474C741.239 439.921 730.195 423.043 725.551 400.842L763.61 391.327C767.235 405.373 774.088 415.907 784.169 422.93C794.363 429.953 807.673 433.464 824.097 433.464C842.787 433.464 857.626 429.5 868.613 421.57C879.714 413.528 885.264 403.9 885.264 392.686C885.264 383.624 882.093 376.035 875.749 369.918C869.406 363.688 859.665 359.044 846.525 355.986L803.029 345.791C779.128 340.128 761.571 331.349 750.357 319.456C739.257 307.449 733.706 292.44 733.706 274.43C733.706 259.705 737.841 246.678 746.109 235.351C754.492 224.024 765.875 215.132 780.261 208.675C794.76 202.219 811.184 198.991 829.534 198.991C855.36 198.991 875.636 204.654 890.362 215.982C905.2 227.309 915.735 242.261 921.964 260.837Z" fill="#0097B2"/>
<path d="M426.365 230.836V463.368H357.467V431.789H356.51C346.941 449.971 323.496 469.109 288.568 469.109C215.842 469.109 202.445 421.263 202.445 359.063V230.836H274.215V344.709C274.215 371.503 274.693 405.953 311.535 405.953C348.855 405.953 354.596 376.766 354.596 346.623V230.836H426.365ZM478.144 463.368V101.651H549.913V463.368H478.144ZM602.432 463.368V101.651H674.201V463.368H602.432ZM1151.55 356.666V202.389H1191.65V463.368H1151.55V419.192H1148.83C1142.72 432.445 1133.2 443.715 1120.29 453.004C1107.38 462.179 1091.07 466.766 1071.36 466.766C1055.05 466.766 1040.55 463.198 1027.86 456.062C1015.17 448.812 1005.21 437.938 997.956 423.439C990.706 408.827 987.082 390.421 987.082 368.219V202.389H1027.18V365.501C1027.18 384.531 1032.5 399.709 1043.15 411.036C1053.91 422.363 1067.62 428.027 1084.27 428.027C1094.24 428.027 1104.38 425.478 1114.68 420.381C1125.1 415.284 1133.83 407.468 1140.85 396.934C1147.98 386.399 1151.55 372.977 1151.55 356.666ZM1265.09 463.368V202.389H1305.19V463.368H1265.09ZM1285.48 158.892C1277.67 158.892 1270.93 156.23 1265.26 150.907C1259.71 145.583 1256.94 139.183 1256.94 131.707C1256.94 124.231 1259.71 117.831 1265.26 112.507C1270.93 107.184 1277.67 104.522 1285.48 104.522C1293.3 104.522 1299.98 107.184 1305.53 112.507C1311.2 117.831 1314.03 124.231 1314.03 131.707C1314.03 139.183 1311.2 145.583 1305.53 150.907C1299.98 156.23 1293.3 158.892 1285.48 158.892ZM1492.13 202.389V236.371H1356.89V202.389H1492.13ZM1396.31 139.863H1436.4V388.608C1436.4 399.936 1438.05 408.431 1441.33 414.095C1444.73 419.645 1449.03 423.383 1454.24 425.308C1459.57 427.121 1465.18 428.027 1471.07 428.027C1475.48 428.027 1479.11 427.8 1481.94 427.347C1484.77 426.781 1487.04 426.328 1488.74 425.988L1496.89 462.009C1494.17 463.028 1490.38 464.048 1485.51 465.067C1480.64 466.2 1474.46 466.766 1466.99 466.766C1455.66 466.766 1444.56 464.331 1433.69 459.46C1422.92 454.589 1413.98 447.17 1406.84 437.202C1399.82 427.234 1396.31 414.661 1396.31 399.482V139.863ZM1659.07 468.805C1633.92 468.805 1612.23 463.255 1593.99 452.154C1575.87 440.94 1561.88 425.308 1552.03 405.259C1542.29 385.097 1537.41 361.65 1537.41 334.917C1537.41 308.185 1542.29 284.624 1552.03 264.235C1561.88 243.733 1575.59 227.762 1593.14 216.321C1610.81 204.768 1631.43 198.991 1654.99 198.991C1668.58 198.991 1682.01 201.256 1695.26 205.787C1708.51 210.318 1720.58 217.681 1731.45 227.875C1742.32 237.956 1750.99 251.322 1757.45 267.973C1763.9 284.624 1767.13 305.127 1767.13 329.48V346.471H1565.96V311.81H1726.35C1726.35 297.084 1723.41 283.945 1717.52 272.391C1711.74 260.837 1703.47 251.719 1692.71 245.036C1682.06 238.353 1669.49 235.011 1654.99 235.011C1639.02 235.011 1625.2 238.976 1613.53 246.905C1601.98 254.721 1593.09 264.915 1586.86 277.488C1580.63 290.062 1577.51 303.541 1577.51 317.926V341.034C1577.51 360.743 1580.91 377.451 1587.71 391.157C1594.62 404.75 1604.19 415.114 1616.42 422.25C1628.66 429.273 1642.87 432.784 1659.07 432.784C1669.6 432.784 1679.12 431.312 1687.61 428.367C1696.22 425.308 1703.64 420.778 1709.87 414.774C1716.1 408.657 1720.92 401.068 1724.31 392.006L1763.05 402.881C1758.97 416.02 1752.12 427.574 1742.49 437.542C1732.87 447.397 1720.97 455.099 1706.81 460.649C1692.65 466.086 1676.74 468.805 1659.07 468.805Z" fill="#1A0202"/>
<circle cx="1830.12" cy="428.591" r="35.8846" fill="#0097B2"/>
<path d="M366.818 603.812V541.051H406.265V547.965H374.264V567.645H404.138V574.559H374.264V596.898H407.861V603.812H366.818ZM418.124 603.812V572.166C418.124 568.354 417.769 565.074 417.769 562.326H424.329C424.329 564.542 424.506 566.847 424.506 569.152H424.683C426.545 565.074 431.686 561.262 438.512 561.262C447.465 561.262 450.302 566.315 451.632 569.152C454.646 564.276 458.458 561.262 464.751 561.262C476.63 561.262 480.53 567.911 480.53 578.637V603.812H473.616V578.992C473.616 573.23 471.577 567.645 463.51 567.645C457.66 567.645 452.784 572.432 452.784 579.878V603.812H445.87V580.321C445.87 571.191 443.565 567.645 437.892 567.645C428.938 567.645 425.038 574.116 425.038 583.601V603.812H418.124ZM493.257 624.024V562.326H500.171V568.354H500.348C504.16 563.922 509.213 561.262 515.241 561.262C528.272 561.262 537.048 570.482 537.048 583.069C537.048 595.48 527.917 604.876 516.305 604.876C508.858 604.876 502.919 601.153 500.348 596.455H500.171V624.024H493.257ZM500.171 583.069C500.171 591.757 505.933 598.494 514.886 598.494C523.84 598.494 529.602 591.757 529.602 583.069C529.602 574.382 523.84 567.645 514.886 567.645C505.933 567.645 500.171 574.382 500.171 583.069ZM545.41 583.069C545.41 570.127 554.806 561.262 567.571 561.262C580.336 561.262 589.733 570.127 589.733 583.069C589.733 596.012 580.336 604.876 567.571 604.876C554.806 604.876 545.41 596.012 545.41 583.069ZM552.856 583.069C552.856 591.757 558.618 598.494 567.571 598.494C576.524 598.494 582.286 591.757 582.286 583.069C582.286 574.382 576.524 567.645 567.571 567.645C558.618 567.645 552.856 574.382 552.856 583.069ZM658.323 562.326L644.937 603.812H638.111L626.321 571.9H626.144L615.684 603.812H608.592L595.118 562.326H602.742L612.227 594.239H612.404L623.13 562.326H630.399L641.303 594.239H641.48L650.876 562.326H658.323ZM697.966 592.2L703.196 596.278C698.321 602.571 692.47 604.876 684.758 604.876C671.727 604.876 663.749 595.125 663.749 583.069C663.749 570.216 672.791 561.262 685.024 561.262C696.725 561.262 704.703 569.241 704.703 582.981V585.197H671.195C671.727 592.377 677.223 598.494 684.758 598.494C690.697 598.494 694.686 596.366 697.966 592.2ZM671.195 579.346H697.257C696.991 572.343 692.381 567.645 684.758 567.645C677.134 567.645 672.081 572.343 671.195 579.346ZM715.4 603.812V572.166C715.4 568.354 715.045 565.074 715.045 562.326H721.605C721.605 564.542 721.782 566.847 721.782 569.152H721.959C723.821 565.074 728.962 561.262 735.788 561.262C736.675 561.262 737.65 561.351 738.625 561.706L738.182 568.709C737.029 568.354 735.7 568.177 734.459 568.177C726.037 568.177 722.314 574.116 722.314 583.601V603.812H715.4ZM747.185 603.812V562.326H754.099V603.812H747.185ZM745.589 546.104C745.589 543.356 747.805 541.051 750.642 541.051C753.479 541.051 755.695 543.356 755.695 546.104C755.695 549.029 753.567 551.157 750.642 551.157C747.717 551.157 745.589 549.029 745.589 546.104ZM767.86 603.812V572.166C767.86 568.354 767.506 565.074 767.506 562.326H774.065C774.065 564.542 774.243 566.847 774.243 569.152H774.42C776.281 565.074 781.423 561.262 788.249 561.262C799.152 561.262 804.028 568.177 804.028 578.194V603.812H797.113V578.903C797.113 571.989 794.099 567.645 787.628 567.645C778.675 567.645 774.774 574.116 774.774 583.601V603.812H767.86ZM858.515 562.326V601.951C858.515 616.932 850.448 625.088 835.911 625.088C827.844 625.088 821.373 622.96 815.522 617.198L820.486 611.525C824.83 616.223 829.528 618.705 835.911 618.705C848.321 618.705 851.601 610.727 851.601 601.951V596.632H851.424C848.144 601.951 842.293 604.344 836.797 604.344C823.766 604.344 814.724 595.302 814.724 583.069C814.724 569.506 823.589 561.262 836.797 561.262C842.382 561.262 848.676 563.922 851.424 569.418H851.601V562.326H858.515ZM822.17 583.069C822.17 591.491 828.73 597.962 836.797 597.962C846.282 597.962 851.601 590.87 851.601 582.892C851.601 573.939 845.573 567.645 836.797 567.645C828.11 567.645 822.17 574.382 822.17 583.069ZM891.372 597.164L896.868 592.909C899.616 596.278 902.63 598.494 907.505 598.494C911.849 598.494 916.636 596.632 916.636 592.111C916.636 587.679 912.204 586.527 907.771 585.551C899.882 583.778 893.145 582.094 893.145 573.496C893.145 565.429 900.946 561.262 908.658 561.262C914.508 561.262 919.916 563.479 922.753 568.797L916.991 572.609C915.218 569.684 912.292 567.645 908.215 567.645C904.403 567.645 900.059 569.506 900.059 573.407C900.059 576.864 905.023 578.371 910.519 579.435C917.877 580.853 924.082 583.513 924.082 591.845C924.082 601.242 915.749 604.876 907.505 604.876C900.502 604.876 895.45 603.015 891.372 597.164ZM956.419 562.326V568.177H944.185V588.92C944.185 594.239 944.274 598.494 950.391 598.494C952.43 598.494 954.646 598.051 956.507 597.075L956.773 603.369C954.38 604.433 951.277 604.876 948.706 604.876C938.867 604.876 937.271 599.557 937.271 590.959V568.177H928.229V562.326H937.271V550.536H944.185V562.326H956.419ZM968.702 572.166L964.358 567.645C968.613 563.301 974.818 561.262 980.846 561.262C993.079 561.262 998.221 567.113 998.221 578.814V596.632C998.221 599.026 998.487 601.685 998.841 603.812H992.193C991.75 601.951 991.75 599.38 991.75 597.607H991.572C988.824 601.862 984.215 604.876 977.921 604.876C969.499 604.876 962.496 600.621 962.496 592.554C962.496 578.814 978.453 578.016 988.647 578.016H991.306V576.775C991.306 570.748 987.495 567.645 981.023 567.645C976.591 567.645 971.982 569.152 968.702 572.166ZM991.306 583.867H984.392C975.616 583.867 969.943 586.261 969.943 591.845C969.943 597.075 973.843 599.026 979.073 599.026C987.051 599.026 991.129 593.264 991.306 586.527V583.867ZM1010.86 603.812V572.166C1010.86 568.354 1010.5 565.074 1010.5 562.326H1017.06C1017.06 564.542 1017.24 566.847 1017.24 569.152H1017.42C1019.28 565.074 1024.42 561.262 1031.25 561.262C1032.13 561.262 1033.11 561.351 1034.08 561.706L1033.64 568.709C1032.49 568.354 1031.16 568.177 1029.92 568.177C1021.5 568.177 1017.77 574.116 1017.77 583.601V603.812H1010.86ZM1064.72 562.326V568.177H1052.48V588.92C1052.48 594.239 1052.57 598.494 1058.69 598.494C1060.73 598.494 1062.94 598.051 1064.8 597.075L1065.07 603.369C1062.68 604.433 1059.57 604.876 1057 604.876C1047.16 604.876 1045.57 599.557 1045.57 590.959V568.177H1036.53V562.326H1045.57V550.536H1052.48V562.326H1064.72ZM1109.35 562.326V593.973C1109.35 597.785 1109.71 601.064 1109.71 603.812H1103.15C1103.15 601.596 1102.97 599.292 1102.97 596.987H1102.79C1100.93 601.064 1095.79 604.876 1088.97 604.876C1078.06 604.876 1073.19 597.962 1073.19 587.945V562.326H1080.1V587.236C1080.1 594.15 1083.12 598.494 1089.59 598.494C1098.54 598.494 1102.44 592.023 1102.44 582.537V562.326H1109.35ZM1122.09 624.024V562.326H1129V568.354H1129.18C1132.99 563.922 1138.05 561.262 1144.07 561.262C1157.11 561.262 1165.88 570.482 1165.88 583.069C1165.88 595.48 1156.75 604.876 1145.14 604.876C1137.69 604.876 1131.75 601.153 1129.18 596.455H1129V624.024H1122.09ZM1129 583.069C1129 591.757 1134.77 598.494 1143.72 598.494C1152.67 598.494 1158.43 591.757 1158.43 583.069C1158.43 574.382 1152.67 567.645 1143.72 567.645C1134.77 567.645 1129 574.382 1129 583.069ZM1172.03 597.164L1177.52 592.909C1180.27 596.278 1183.28 598.494 1188.16 598.494C1192.5 598.494 1197.29 596.632 1197.29 592.111C1197.29 587.679 1192.86 586.527 1188.43 585.551C1180.54 583.778 1173.8 582.094 1173.8 573.496C1173.8 565.429 1181.6 561.262 1189.31 561.262C1195.16 561.262 1200.57 563.479 1203.41 568.797L1197.65 572.609C1195.87 569.684 1192.95 567.645 1188.87 567.645C1185.06 567.645 1180.71 569.506 1180.71 573.407C1180.71 576.864 1185.68 578.371 1191.17 579.435C1198.53 580.853 1204.74 583.513 1204.74 591.845C1204.74 601.242 1196.4 604.876 1188.16 604.876C1181.16 604.876 1176.1 603.015 1172.03 597.164ZM1226.52 594.771L1219.26 616.046H1212.43L1218.46 594.771H1226.52ZM1267.27 603.812V568.177H1258.23V562.326H1267.27V553.018C1267.27 542.913 1270.82 535.732 1281.99 535.732C1283.76 535.732 1285.97 536.087 1287.3 536.796L1286.33 543.001C1284.82 542.469 1283.23 542.115 1281.63 542.115C1274.45 542.115 1274.18 547.345 1274.18 554.525V562.326H1284.29V568.177H1274.18V603.812H1267.27ZM1327.85 562.326V593.973C1327.85 597.785 1328.21 601.064 1328.21 603.812H1321.65C1321.65 601.596 1321.47 599.292 1321.47 596.987H1321.29C1319.43 601.064 1314.29 604.876 1307.46 604.876C1296.56 604.876 1291.69 597.962 1291.69 587.945V562.326H1298.6V587.236C1298.6 594.15 1301.61 598.494 1308.09 598.494C1317.04 598.494 1320.94 592.023 1320.94 582.537V562.326H1327.85ZM1372.77 592.2L1378 596.278C1373.12 602.571 1367.27 604.876 1359.56 604.876C1346.53 604.876 1338.55 595.125 1338.55 583.069C1338.55 570.216 1347.59 561.262 1359.82 561.262C1371.53 561.262 1379.5 569.241 1379.5 582.981V585.197H1346C1346.53 592.377 1352.02 598.494 1359.56 598.494C1365.5 598.494 1369.49 596.366 1372.77 592.2ZM1346 579.346H1372.06C1371.79 572.343 1367.18 567.645 1359.56 567.645C1351.94 567.645 1346.88 572.343 1346 579.346ZM1390.82 603.812V536.796H1397.74V603.812H1390.82ZM1412.12 603.812V562.326H1419.03V603.812H1412.12ZM1410.52 546.104C1410.52 543.356 1412.74 541.051 1415.57 541.051C1418.41 541.051 1420.63 543.356 1420.63 546.104C1420.63 549.029 1418.5 551.157 1415.57 551.157C1412.65 551.157 1410.52 549.029 1410.52 546.104ZM1432.79 603.812V572.166C1432.79 568.354 1432.44 565.074 1432.44 562.326H1439C1439 564.542 1439.17 566.847 1439.17 569.152H1439.35C1441.21 565.074 1446.36 561.262 1453.18 561.262C1464.08 561.262 1468.96 568.177 1468.96 578.194V603.812H1462.05V578.903C1462.05 571.989 1459.03 567.645 1452.56 567.645C1443.61 567.645 1439.71 574.116 1439.71 583.601V603.812H1432.79ZM1523.45 562.326V601.951C1523.45 616.932 1515.38 625.088 1500.84 625.088C1492.78 625.088 1486.3 622.96 1480.45 617.198L1485.42 611.525C1489.76 616.223 1494.46 618.705 1500.84 618.705C1513.25 618.705 1516.53 610.727 1516.53 601.951V596.632H1516.36C1513.08 601.951 1507.23 604.344 1501.73 604.344C1488.7 604.344 1479.66 595.302 1479.66 583.069C1479.66 569.506 1488.52 561.262 1501.73 561.262C1507.31 561.262 1513.61 563.922 1516.36 569.418H1516.53V562.326H1523.45ZM1487.1 583.069C1487.1 591.491 1493.66 597.962 1501.73 597.962C1511.21 597.962 1516.53 590.87 1516.53 582.892C1516.53 573.939 1510.51 567.645 1501.73 567.645C1493.04 567.645 1487.1 574.382 1487.1 583.069ZM1595.93 567.822L1590.43 572.698C1587.51 569.152 1584.14 567.645 1579.97 567.645C1570.66 567.645 1565.97 574.559 1565.97 583.069C1565.97 591.579 1571.55 598.494 1579.97 598.494C1584.49 598.494 1587.95 596.898 1590.52 593.352L1595.66 598.228C1591.67 602.837 1586 604.876 1579.97 604.876C1567.12 604.876 1558.52 595.834 1558.52 583.069C1558.52 570.482 1567.21 561.262 1579.97 561.262C1586.09 561.262 1591.76 563.301 1595.93 567.822ZM1607.49 572.166L1603.15 567.645C1607.4 563.301 1613.61 561.262 1619.63 561.262C1631.87 561.262 1637.01 567.113 1637.01 578.814V596.632C1637.01 599.026 1637.28 601.685 1637.63 603.812H1630.98C1630.54 601.951 1630.54 599.38 1630.54 597.607H1630.36C1627.61 601.862 1623 604.876 1616.71 604.876C1608.29 604.876 1601.29 600.621 1601.29 592.554C1601.29 578.814 1617.24 578.016 1627.44 578.016H1630.09V576.775C1630.09 570.748 1626.28 567.645 1619.81 567.645C1615.38 567.645 1610.77 569.152 1607.49 572.166ZM1630.09 583.867H1623.18C1614.4 583.867 1608.73 586.261 1608.73 591.845C1608.73 597.075 1612.63 599.026 1617.86 599.026C1625.84 599.026 1629.92 593.264 1630.09 586.527V583.867ZM1649.65 603.812V572.166C1649.65 568.354 1649.29 565.074 1649.29 562.326H1655.85C1655.85 564.542 1656.03 566.847 1656.03 569.152H1656.21C1658.07 565.074 1663.21 561.262 1670.03 561.262C1670.92 561.262 1671.9 561.351 1672.87 561.706L1672.43 568.709C1671.28 568.354 1669.95 568.177 1668.71 568.177C1660.28 568.177 1656.56 574.116 1656.56 583.601V603.812H1649.65ZM1711.08 592.2L1716.31 596.278C1711.43 602.571 1705.58 604.876 1697.87 604.876C1684.84 604.876 1676.86 595.125 1676.86 583.069C1676.86 570.216 1685.9 561.262 1698.13 561.262C1709.84 561.262 1717.81 569.241 1717.81 582.981V585.197H1684.31C1684.84 592.377 1690.33 598.494 1697.87 598.494C1703.81 598.494 1707.8 596.366 1711.08 592.2ZM1684.31 579.346H1710.37C1710.1 572.343 1705.49 567.645 1697.87 567.645C1690.24 567.645 1685.19 572.343 1684.31 579.346ZM1760.33 592.2L1765.56 596.278C1760.69 602.571 1754.84 604.876 1747.13 604.876C1734.09 604.876 1726.12 595.125 1726.12 583.069C1726.12 570.216 1735.16 561.262 1747.39 561.262C1759.09 561.262 1767.07 569.241 1767.07 582.981V585.197H1733.56C1734.09 592.377 1739.59 598.494 1747.13 598.494C1753.07 598.494 1757.05 596.366 1760.33 592.2ZM1733.56 579.346H1759.62C1759.36 572.343 1754.75 567.645 1747.13 567.645C1739.5 567.645 1734.45 572.343 1733.56 579.346ZM1777.77 603.812V572.166C1777.77 568.354 1777.41 565.074 1777.41 562.326H1783.97C1783.97 564.542 1784.15 566.847 1784.15 569.152H1784.33C1786.19 565.074 1791.33 561.262 1798.16 561.262C1799.04 561.262 1800.02 561.351 1800.99 561.706L1800.55 568.709C1799.4 568.354 1798.07 568.177 1796.83 568.177C1788.41 568.177 1784.68 574.116 1784.68 583.601V603.812H1777.77ZM1804.32 597.164L1809.82 592.909C1812.57 596.278 1815.58 598.494 1820.46 598.494C1824.8 598.494 1829.59 596.632 1829.59 592.111C1829.59 587.679 1825.15 586.527 1820.72 585.551C1812.83 583.778 1806.1 582.094 1806.1 573.496C1806.1 565.429 1813.9 561.262 1821.61 561.262C1827.46 561.262 1832.87 563.479 1835.7 568.797L1829.94 572.609C1828.17 569.684 1825.24 567.645 1821.17 567.645C1817.35 567.645 1813.01 569.506 1813.01 573.407C1813.01 576.864 1817.97 578.371 1823.47 579.435C1830.83 580.853 1837.03 583.513 1837.03 591.845C1837.03 601.242 1828.7 604.876 1820.46 604.876C1813.45 604.876 1808.4 603.015 1804.32 597.164ZM1852.44 593.707C1855.36 593.707 1857.76 596.1 1857.76 599.026C1857.76 601.951 1855.19 604.344 1852.44 604.344C1849.69 604.344 1847.12 601.951 1847.12 599.026C1847.12 596.1 1849.51 593.707 1852.44 593.707Z" fill="#0097B2"/>
</svg>
